PathFileType	3	(X/Y/Z)	C:\Users\koon_\Desktop\																																																																															
DataRate	CameraRate	NumFrames	NumMarkers	Units	OrigDataRate	OrigDataStartFrame	OrigNumFrames																																																																											
100	100	14	27	mm	100	816	2174																																																																											
Frame#	Time	get:LFHD			get:RFHD			get:LBHD			get:RBHD			get:C7			get:T10			get:CLAV			get:STRN			get:RBAK			get:LSHO			get:LUPA			get:LELB			get:LFRA			get:LWRA			get:LWRB			get:LFIN			get:RSHO			get:RUPA			get:RELB			get:RFRA			get:RWRA			get:RWRB			get:RFIN			get:LASI			get:RASI			get:LPSI			get:RPSI		
		X1	Y1	Z1	X2	Y2	Z2	X3	Y3	Z3	X4	Y4	Z4	X5	Y5	Z5	X6	Y6	Z6	X7	Y7	Z7	X8	Y8	Z8	X9	Y9	Z9	X10	Y10	Z10	X11	Y11	Z11	X12	Y12	Z12	X13	Y13	Z13	X14	Y14	Z14	X15	Y15	Z15	X16	Y16	Z16	X17	Y17	Z17	X18	Y18	Z18	X19	Y19	Z19	X20	Y20	Z20	X21	Y21	Z21	X22	Y22	Z22	X23	Y23	Z23	X24	Y24	Z24	X25	Y25	Z25	X26	Y26	Z26	X27	Y27	Z27
816	8.15	85.378769	1370.808	9.1587782	-59.86306	1360.1611	28.835739	67.122208	1321.208	-119.75551	-78.551163	1307.6417	-92.41053	-13.136016	1161.34	-109.92018	-16.972446	971.25452	-211.4447	41.983009	1022.498	51.551304	37.369797	861.16638	36.746956	-106.38307	1096.3447	-124.14686	177.14722	1135.865	-81.158989	255.33849	924.61395	-64.058411	267.42709	813.2157	-130.95804	317.1911	766.60992	-60.696396	344.14917	599.84808	-23.363049	366.59177	603.23425	-95.462021	399.57913	537.97821	-67.104744	-110.63478	1135.8191	26.173153	-164.79997	1003.8613	52.583439	-227.52473	793.69824	-3.0292768	-168.42624	651.99139	50.63221	-158.21399	553.98712	44.852856	-230.20552	569.802	34.746475	-198.57057	487.85809	64.698051	134.22287	724.31403	-141.35074	-160.201	731.24194	-91.052742	12.309732	790.79974	-301.57126	-78.850586	788.57117	-290.40356
817	8.16	85.155716	1377.4033	7.7585754	-60.052101	1366.275	27.448689	66.977303	1328.2161	-121.33509	-78.631264	1314.1151	-93.777962	-13.321354	1167.1686	-111.24812	-17.751488	976.45038	-211.53053	43.25943	1029.7472	51.308353	38.381714	867.90649	36.789028	-106.91019	1101.8757	-124.1945	176.83459	1142.6018	-83.349197	261.46497	934.92688	-62.291409	278.14148	822.04291	-125.51667	330.13702	780.29785	-53.707256	365.74396	617.08911	-10.259085	386.73206	618.52313	-82.958061	424.06131	557.10327	-52.734249	-109.45119	1142.6565	25.43471	-160.91942	1011.7415	57.4151	-220.9424	798.13892	12.869698	-154.54034	660.65326	71.837868	-140.85561	562.73889	70.779213	-213.58275	575.49524	62.85294	-178.33615	496.33804	95.112404	134.4799	729.7663	-140.57269	-159.76347	736.40845	-89.192871	11.608177	795.59607	-300.69727	-79.419518	793.13477	-288.95428
818	8.17	84.843819	1385.5698	6.273881	-60.324081	1374.3071	25.939713	66.70491	1337.0542	-123.06601	-78.908279	1322.8035	-95.750595	-14.007507	1174.4766	-113.3434	-18.510899	982.95514	-211.77776	44.174938	1038.6727	50.416428	39.474277	876.88416	36.91943	-107.65056	1108.7634	-124.59831	176.22659	1151.326	-85.927719	267.5386	947.86554	-60.937149	288.99811	833.46021	-120.34268	343.2735	797.3985	-47.240646	387.76053	638.42664	2.7667363	407.19107	637.625	-70.431351	448.707	580.32043	-38.474533	-108.55801	1151.5209	24.119331	-157.27734	1021.7427	60.558128	-213.34398	805.75311	28.211542	-139.4543	672.86566	93.283249	-122.0545	575.61108	97.190987	-195.1521	585.02808	91.158981	-156.36143	509.29648	126.23487	134.67284	736.46295	-139.25885	-159.59135	743.09186	-87.461296	11.273355	801.53912	-299.21307	-79.476746	799.22913	-287.50125
819	8.18	84.562363	1395.3463	4.7200775	-60.680214	1384.1948	24.286371	66.262718	1347.729	-124.9876	-79.335556	1333.5231	-97.904526	-15.139537	1183.2445	-116.06985	-19.251144	990.77802	-211.90891	44.654514	1049.455	48.94133	40.487179	887.85291	37.208286	-108.48959	1117.0286	-125.32073	175.20253	1162.0447	-88.865379	273.36395	963.41046	-59.790897	299.66519	847.77289	-115.35909	356.23813	817.78583	-41.387615	409.66373	664.01813	15.437916	427.56281	660.4422	-58.096428	473.00601	607.53247	-24.382475	-107.88704	1162.255	22.47331	-153.43068	1034.1249	64.339996	-204.44722	816.08148	43.998646	-123.03107	688.85748	114.341	-101.87	592.68738	122.58368	-175.71202	599.41797	119.60814	-132.63062	527.14526	157.42778	134.56224	744.73413	-137.36064	-157.45076	750.82874	-83.229347	11.400614	809.01031	-297.71384	-79.304993	806.52484	-285.74344
820	8.19	84.098061	1406.7048	2.9434862	-61.221504	1395.8163	22.37011	65.750198	1360.1602	-127.05087	-79.897995	1346.1915	-100.29822	-16.219727	1193.6593	-119.13304	-19.888823	999.95331	-212.06653	45.110939	1062.443	47.715099	41.38023	900.81946	37.69426	-109.79027	1126.5081	-126.21651	173.89809	1174.6781	-92.067078	278.93143	981.30597	-58.795258	309.93427	864.8913	-110.58823	368.62805	841.21631	-36.002052	430.8812	693.74762	27.612091	447.58649	687.08917	-46.036137	496.44522	638.61664	-10.694934	-107.46767	1174.8387	20.471407	-149.83031	1048.7372	67.244186	-194.62886	828.79047	61.510548	-105.78609	708.62256	134.14128	-81.303345	614.08148	147.18193	-155.01704	618.11279	147.69707	-107.6115	549.95538	187.79443	135.09805	754.33472	-134.28709	-157.48503	760.44269	-81.183548	11.872909	817.74908	-295.5376	-78.710625	815.27258	-283.78
821	8.2	83.428101	1419.6798	1.1682254	-61.890491	1408.9465	20.276022	65.126984	1374.3687	-129.37523	-80.657852	1360.3615	-102.46512	-17.119186	1205.5861	-122.64009	-20.43964	1010.3942	-212.20638	45.594833	1077.4301	46.464199	42.107758	915.64667	38.247417	-110.93199	1137.3922	-127.11215	172.21428	1189.2172	-95.551949	284.17554	1001.3593	-57.965351	319.55496	884.67621	-106.2161	380.2785	867.33008	-31.519976	451.07565	727.28638	38.936874	466.87589	717.27417	-34.48045	518.73193	673.36261	2.5724196	-107.47398	1189.2708	17.99164	-146.55527	1065.4211	69.936089	-184.61639	844.77203	78.195473	-87.971954	731.91962	152.68266	-60.066803	639.42139	170.39201	-133.93405	641.29407	174.10916	-81.433456	577.74591	217.04288	134.64105	764.97217	-131.6526	-157.57442	771.40381	-79.122498	12.69402	827.90582	-293.11618	-77.756599	825.37817	-281.68613
822	8.21	82.666054	1434.1969	-0.83470619	-62.699921	1423.5208	17.987434	64.324677	1390.1262	-131.82098	-81.424034	1376.1738	-105.3017	-17.85619	1219.0039	-126.50877	-20.79385	1022.1356	-212.14644	45.983444	1094.1364	45.100983	42.558464	932.40704	38.620914	-112.09698	1149.7682	-128.26106	170.33803	1205.3975	-99.067322	289.01294	1023.249	-57.560444	328.26065	906.8111	-102.13484	390.845	895.85223	-27.776598	469.82254	764.1969	49.382339	484.91327	750.57941	-23.525742	539.6217	711.53064	15.366925	-107.64571	1205.2028	15.349804	-143.6226	1083.8101	72.36618	-174.67607	864.37836	93.602592	-71.247391	758.02063	169.2104	-38.709194	668.85541	192.05185	-112.20515	667.45532	199.60883	-55.492134	610.00848	243.87515	135.48021	777.5719	-128.06033	-157.60535	783.84308	-76.816811	13.718588	839.48438	-290.30014	-76.613564	836.88922	-279.1937
823	8.22	81.742058	1450.1826	-3.0601318	-63.618591	1439.5435	15.703469	63.436813	1407.2697	-134.29929	-82.34166	1393.1943	-107.90346	-18.808781	1233.7828	-130.57735	-20.895189	1035.1743	-211.99733	46.223797	1112.5342	43.680515	43.087654	950.87134	38.818897	-113.27949	1163.6647	-129.60547	168.35625	1223.1238	-102.80522	293.20697	1046.6379	-57.76194	336.93719	931.07874	-99.318665	400.20068	926.21368	-24.847836	486.68188	804.14447	58.852783	501.89633	787.00507	-13.343978	558.47473	753.14166	27.303114	-107.88665	1222.5598	12.433551	-141.18539	1103.7942	74.282486	-164.877	886.41589	107.69405	-55.079182	787.18073	184.50739	-17.829578	701.87744	211.93623	-91.005104	697.19299	221.83678	-29.991375	645.90411	268.08447	135.96774	791.51703	-124.12378	-157.46109	797.74658	-74.192421	14.848688	852.44141	-287.03378	-75.259384	849.78253	-276.32999
824	8.23	80.727409	1467.6539	-5.2983346	-64.625801	1456.8876	13.312879	62.439911	1425.6526	-136.91315	-83.359482	1411.4675	-110.88538	-19.440878	1249.7197	-134.90955	-20.522003	1049.3561	-211.64772	46.350166	1132.2278	42.104099	43.420025	970.81525	38.917316	-114.01409	1178.7257	-130.55927	166.30219	1242.1544	-106.61553	296.63852	1071.0892	-58.634998	345.5199	957.08344	-97.747169	408.13763	958.07367	-22.526936	501.28937	846.323	67.086472	517.29498	825.93384	-3.9583743	575.80103	797.79993	38.35857	-108.17263	1241.1224	9.5131826	-139.08379	1125.007	75.618668	-155.48061	910.22662	120.57458	-39.943363	818.79517	198.24365	2.1965196	738.01044	229.86774	-70.306831	729.41071	241.69008	-6.0685019	684.86072	289.70886	136.6129	806.84595	-119.81235	-157.74811	813.10028	-71.491371	16.255608	866.84528	-283.49625	-73.823227	864.07666	-273.08179
825	8.24	79.631844	1486.3409	-7.7408276	-65.756393	1475.5004	10.779922	61.345085	1445.0846	-139.59369	-84.448334	1430.6565	-113.41567	-20.160583	1266.7894	-138.96487	-20.035719	1064.8647	-210.72495	46.491058	1153.1659	40.417099	43.919453	991.83875	39.008106	-114.93826	1195.4135	-132.02612	164.3752	1262.3517	-110.43592	299.24631	1096.4296	-60.104416	353.42508	984.61096	-96.602119	414.54877	991.04126	-20.827536	513.52942	890.38214	74.143669	531.06567	867.00989	4.2266045	590.76288	844.94666	47.90023	-108.47077	1260.8293	6.5801792	-137.46791	1147.2048	76.366386	-146.27966	935.57959	132.23039	-25.846798	852.48462	210.34164	21.016022	776.56421	245.59265	-50.445923	763.86298	259.19147	17.009274	726.1756	308.40479	137.53717	823.61731	-115.19157	-156.71625	830.15411	-67.834778	17.649612	882.51636	-279.41293	-72.173553	879.71832	-269.41714
826	8.25	78.47599	1506.2039	-10.148768	-66.879356	1495.1204	8.3128805	60.192879	1465.5109	-142.22774	-85.491882	1450.901	-116.30334	-21.472267	1285.1378	-142.39227	-19.753567	1082.124	-209.66153	46.483707	1175.1296	38.657623	44.810799	1013.8088	39.254597	-115.83654	1213.2446	-133.25064	162.38757	1283.6522	-114.25037	301.04977	1122.5565	-62.07769	360.65878	1013.2415	-95.724045	419.42239	1024.7279	-19.741867	522.9054	934.94763	79.664406	541.87787	908.87659	11.26348	603.43719	893.63269	55.72683	-108.91203	1281.5787	3.8103585	-136.03729	1170.3083	76.890526	-137.97308	961.91364	141.72145	-12.961093	887.79065	220.79372	38.596588	816.83752	258.96878	-31.771387	800.18579	273.5625	38.5042	769.4649	324.06494	138.65939	841.76263	-110.36903	-155.74391	848.57886	-63.87064	19.211847	899.60071	-275.18781	-70.376556	896.7699	-265.43079
827	8.26	77.301796	1526.9332	-12.589193	-67.955879	1515.6412	5.951118	59.022659	1486.7548	-144.75429	-86.682343	1471.7549	-118.69928	-22.995113	1304.2422	-145.84834	-19.600126	1100.3186	-208.57092	46.469025	1197.9337	36.656845	45.898945	1036.7373	39.666012	-116.76251	1232.2173	-134.48003	160.18179	1305.7878	-118.08673	302.26028	1149.526	-64.554298	367.57901	1043.2062	-95.90271	422.81238	1058.6833	-19.358171	530.06299	979.58234	83.499115	550.43927	950.95825	16.762129	613.08026	942.5304	61.238293	-109.30025	1303.2578	0.99031246	-134.68292	1194.3423	76.945145	-130.19371	989.2923	149.38953	-1.0225146	924.23383	228.9315	54.807709	858.46185	269.88409	-14.105016	838.21967	285.73972	58.544464	814.08832	336.55914	139.93074	861.19971	-105.48327	-154.44151	868.24884	-59.602146	20.785189	917.68481	-270.36319	-68.542908	914.9588	-260.9798
828	8.27	76.308365	1548.1801	-14.924846	-68.926689	1536.6287	3.6366594	57.948586	1508.6649	-147.30528	-87.759537	1493.3997	-121.22128	-24.421196	1324.2084	-149.28606	-19.629066	1119.5435	-207.63013	46.546467	1221.4933	34.529179	46.987274	1060.553	40.194305	-117.78043	1252.0083	-135.51578	157.73335	1328.432	-122.09782	302.88748	1177.0779	-67.206818	373.49194	1073.973	-96.683296	425.12354	1092.485	-19.524132	535.47522	1023.5753	85.446953	557.27588	992.80048	20.254274	620.30945	990.31006	64.855995	-109.68257	1325.5753	-1.8987954	-133.29759	1219.2278	76.736404	-122.87279	1017.4741	155.34622	10.211221	961.17798	234.52534	70.109848	899.62494	276.29529	2.4750099	877.68347	295.68796	77.655487	859.69287	345.67032	140.49336	881.47559	-100.87397	-153.00981	888.9433	-55.181553	22.350679	936.87012	-265.41815	-66.692787	934.10828	-256.30371
829	8.28	75.416367	1569.5419	-17.111319	-69.828598	1557.8265	1.5309952	56.899075	1530.9933	-149.75175	-88.832787	1515.4355	-123.45323	-26.146685	1344.489	-152.69688	-19.939966	1139.2308	-206.54329	46.571812	1245.5334	32.214809	48.180733	1084.8917	40.926727	-118.94512	1272.3881	-136.76675	155.03719	1351.2113	-126.30128	302.96237	1204.9304	-70.072144	378.08051	1104.9777	-98.01976	426.49335	1125.8762	-20.299076	539.72162	1066.1979	85.357834	562.7417	1033.702	21.626619	625.64069	1035.7542	66.729027	-109.97868	1348.1454	-4.9054799	-131.86908	1244.5311	76.466553	-115.73693	1046.0055	159.78409	20.894299	997.98535	237.63551	84.138725	940.68982	280.44272	17.903755	917.29498	302.48306	94.965187	905.17542	351.61578	141.87334	902.8042	-96.081573	-151.44104	910.28546	-50.86602	23.924536	956.90399	-260.63858	-64.812851	954.13702	-251.70154
